<svg xmlns="http://www.w3.org/2000/svg" width="51" height="51" viewBox="0 0 51 51">
    <g fill="#542376" fill-rule="nonzero">
        <path d="M.897.292v50H50.86v-50H.897zM46.03 45.458H5.726V5.125h40.305v40.333z"/>
        <path d="M9.932 14.25v4.792h10.034l-9.576 20.5h5.33L27.21 14.25H9.931zm29.479 9.625c1.457-1.167 2.415-2.75 2.415-5.292 0-3.958-2.998-7-7.537-7-4.538 0-7.536 3.084-7.536 6.917 0 2.583.916 4.167 2.415 5.333-1.707 1.209-2.79 2.917-2.79 5.75 0 4 3.165 7.167 7.911 7.167 4.747 0 7.911-3.125 7.911-7.25 0-2.708-1.082-4.375-2.79-5.625zm-5.122 8.292c-1.915 0-3.04-1.375-3.04-3.042 0-1.792 1.208-3.125 3.04-3.125 1.874 0 3.04 1.333 3.04 3.167.041 1.583-1.124 3-3.04 3zm0-9.875c-1.873 0-3.04-1.334-3.04-3.125 0-1.625 1.125-3 3.04-3 1.916 0 3.04 1.416 3.04 2.958.041 1.875-1.166 3.167-3.04 3.167z"/>
    </g>
</svg>
